<svg width="149" height="35" viewBox="0 0 149 35" fill="none" xmlns="http://www.w3.org/2000/svg">
<path d="M110.892 10.1279C110.253 10.1279 109.699 9.98728 109.23 9.70603C108.761 9.42478 108.397 9.03132 108.139 8.52563C107.883 8.01995 107.755 7.42904 107.755 6.75291C107.755 6.07677 107.883 5.48444 108.139 4.97592C108.397 4.4674 108.761 4.07251 109.23 3.79126C109.699 3.51001 110.253 3.36938 110.892 3.36938C111.531 3.36938 112.085 3.51001 112.554 3.79126C113.022 4.07251 113.385 4.4674 113.64 4.97592C113.899 5.48444 114.028 6.07677 114.028 6.75291C114.028 7.42904 113.899 8.01995 113.64 8.52563C113.385 9.03132 113.022 9.42478 112.554 9.70603C112.085 9.98728 111.531 10.1279 110.892 10.1279ZM110.9 8.89211C111.247 8.89211 111.537 8.79694 111.77 8.6066C112.003 8.41342 112.176 8.1549 112.289 7.83103C112.406 7.50717 112.464 7.14637 112.464 6.74865C112.464 6.34808 112.406 5.98586 112.289 5.662C112.176 5.33529 112.003 5.07535 111.77 4.88217C111.537 4.68899 111.247 4.5924 110.9 4.5924C110.545 4.5924 110.25 4.68899 110.014 4.88217C109.781 5.07535 109.606 5.33529 109.49 5.662C109.376 5.98586 109.319 6.34808 109.319 6.74865C109.319 7.14637 109.376 7.50717 109.49 7.83103C109.606 8.1549 109.781 8.41342 110.014 8.6066C110.25 8.79694 110.545 8.89211 110.9 8.89211Z" fill="white"/>
<path d="M102.907 10.115C102.393 10.115 101.932 9.98293 101.526 9.71873C101.12 9.45452 100.799 9.071 100.563 8.56816C100.327 8.06532 100.209 7.45452 100.209 6.73577C100.209 6.0085 100.329 5.39486 100.567 4.89486C100.809 4.39202 101.134 4.01276 101.543 3.75708C101.952 3.49856 102.408 3.3693 102.911 3.3693C103.295 3.3693 103.61 3.43464 103.857 3.56532C104.104 3.69316 104.3 3.84799 104.445 4.02981C104.59 4.20878 104.702 4.37782 104.782 4.53691H104.846V1.27271H106.393V9.99998H104.876V8.96873H104.782C104.702 9.12782 104.587 9.29685 104.437 9.47583C104.286 9.65197 104.087 9.80254 103.84 9.92754C103.593 10.0525 103.282 10.115 102.907 10.115ZM103.337 8.84941C103.664 8.84941 103.942 8.76134 104.173 8.58521C104.403 8.40623 104.577 8.15765 104.697 7.83947C104.816 7.52129 104.876 7.15055 104.876 6.72725C104.876 6.30396 104.816 5.93606 104.697 5.62356C104.58 5.31106 104.407 5.06816 104.177 4.89486C103.95 4.72157 103.67 4.63492 103.337 4.63492C102.994 4.63492 102.707 4.72441 102.477 4.90339C102.246 5.08236 102.073 5.32952 101.957 5.64486C101.84 5.96021 101.782 6.321 101.782 6.72725C101.782 7.13634 101.84 7.5014 101.957 7.82242C102.076 8.1406 102.251 8.39202 102.481 8.57668C102.714 8.7585 102.999 8.84941 103.337 8.84941Z" fill="white"/>
<path d="M94.7081 6.16484V10.0001H93.1655V3.45461H94.64V4.56683H94.7167C94.8672 4.20035 95.1073 3.90916 95.4368 3.69325C95.7692 3.47734 96.1797 3.36938 96.6684 3.36938C97.1201 3.36938 97.5135 3.46598 97.8488 3.65916C98.1868 3.85234 98.4482 4.13217 98.6329 4.49865C98.8204 4.86512 98.9127 5.30973 98.9098 5.83245V10.0001H97.3672V6.07109C97.3672 5.63359 97.2536 5.29126 97.0263 5.0441C96.8019 4.79694 96.4908 4.67336 96.0931 4.67336C95.8232 4.67336 95.5831 4.73302 95.3729 4.85234C95.1655 4.96882 95.0022 5.13785 94.8829 5.35944C94.7664 5.58103 94.7081 5.8495 94.7081 6.16484Z" fill="white"/>
<path d="M88.1586 10.1322C87.7438 10.1322 87.3703 10.0583 87.0379 9.91058C86.7083 9.76001 86.447 9.53842 86.2538 9.24581C86.0634 8.95319 85.9683 8.5924 85.9683 8.16342C85.9683 7.7941 86.0364 7.4887 86.1728 7.24723C86.3092 7.00575 86.4953 6.81257 86.731 6.66768C86.9668 6.52279 87.2325 6.41342 87.5279 6.33956C87.8262 6.26285 88.1345 6.20745 88.4526 6.17336C88.8362 6.13359 89.1472 6.09808 89.3859 6.06683C89.6245 6.03274 89.7978 5.9816 89.9058 5.91342C90.0166 5.8424 90.072 5.73302 90.072 5.58529V5.55973C90.072 5.2387 89.9768 4.99012 89.7864 4.81399C89.5961 4.63785 89.322 4.54978 88.964 4.54978C88.5862 4.54978 88.2864 4.63217 88.0649 4.79694C87.8461 4.96171 87.6984 5.15632 87.6217 5.38075L86.1813 5.1762C86.295 4.77848 86.4825 4.44609 86.7438 4.17904C87.0052 3.90916 87.3248 3.70745 87.7026 3.57393C88.0805 3.43757 88.4981 3.36938 88.9555 3.36938C89.2708 3.36938 89.5847 3.40632 89.8972 3.48018C90.2097 3.55404 90.4953 3.6762 90.7538 3.84666C91.0123 4.01427 91.2197 4.24296 91.3759 4.53274C91.535 4.82251 91.6146 5.18473 91.6146 5.61938V10.0001H90.1316V9.10092H90.0805C89.9867 9.28274 89.8546 9.45319 89.6842 9.61228C89.5166 9.76853 89.3049 9.89495 89.0492 9.99154C88.7964 10.0853 88.4995 10.1322 88.1586 10.1322ZM88.5592 8.99865C88.8688 8.99865 89.1373 8.93757 89.3646 8.81541C89.5918 8.69041 89.7666 8.52564 89.8887 8.32109C90.0137 8.11654 90.0762 7.89353 90.0762 7.65206V6.88075C90.0279 6.92052 89.9455 6.95745 89.8291 6.99154C89.7154 7.02563 89.5876 7.05546 89.4455 7.08103C89.3035 7.1066 89.1629 7.12933 89.0237 7.14921C88.8845 7.1691 88.7637 7.18615 88.6614 7.20035C88.4313 7.2316 88.2254 7.28274 88.0435 7.35376C87.8617 7.42478 87.7183 7.52421 87.6131 7.65206C87.508 7.77706 87.4555 7.93899 87.4555 8.13785C87.4555 8.42194 87.5592 8.63643 87.7666 8.78132C87.9739 8.9262 88.2382 8.99865 88.5592 8.99865Z" fill="white"/>
<path d="M82.2042 10.1279C81.5508 10.1279 80.9897 9.98444 80.521 9.69751C80.0551 9.41058 79.6957 9.01427 79.4429 8.50859C79.1929 8.00007 79.0679 7.41484 79.0679 6.75291C79.0679 6.08814 79.1957 5.50149 79.4514 4.99296C79.7071 4.4816 80.0679 4.08387 80.5338 3.79978C81.0025 3.51285 81.5565 3.36938 82.1957 3.36938C82.727 3.36938 83.1971 3.4674 83.6062 3.66342C84.0182 3.8566 84.3463 4.13075 84.5906 4.48586C84.8349 4.83813 84.9741 5.25007 85.0082 5.72166H83.5338C83.4741 5.40632 83.3321 5.14353 83.1076 4.93331C82.8861 4.72024 82.5892 4.6137 82.217 4.6137C81.9017 4.6137 81.6247 4.69893 81.3861 4.86938C81.1474 5.037 80.9613 5.27848 80.8278 5.59382C80.6971 5.90916 80.6318 6.287 80.6318 6.72734C80.6318 7.17336 80.6971 7.55689 80.8278 7.87791C80.9585 8.19609 81.1417 8.44183 81.3775 8.61512C81.6162 8.78558 81.896 8.87081 82.217 8.87081C82.4443 8.87081 82.6474 8.82819 82.8264 8.74296C83.0082 8.6549 83.1602 8.52848 83.2824 8.3637C83.4045 8.19893 83.4883 7.99865 83.5338 7.76285H85.0082C84.9713 8.22592 84.8349 8.63643 84.5991 8.99438C84.3633 9.3495 84.0423 9.62791 83.6361 9.82961C83.2298 10.0285 82.7525 10.1279 82.2042 10.1279Z" fill="white"/>
<path d="M76.2204 9.99998V3.45452H77.763V9.99998H76.2204ZM76.996 2.52555C76.7516 2.52555 76.5414 2.44458 76.3653 2.28265C76.1891 2.11788 76.1011 1.92043 76.1011 1.69032C76.1011 1.45736 76.1891 1.25992 76.3653 1.09799C76.5414 0.933216 76.7516 0.85083 76.996 0.85083C77.2431 0.85083 77.4533 0.933216 77.6266 1.09799C77.8028 1.25992 77.8909 1.45736 77.8909 1.69032C77.8909 1.92043 77.8028 2.11788 77.6266 2.28265C77.4533 2.44458 77.2431 2.52555 76.996 2.52555Z" fill="white"/>
<path d="M75.0124 3.45443V4.64762H71.1431V3.45443H75.0124ZM72.1104 9.99989V2.83654C72.1104 2.3962 72.2013 2.02972 72.3831 1.73711C72.5678 1.44449 72.8149 1.22574 73.1246 1.08086C73.4343 0.935969 73.778 0.863525 74.1558 0.863525C74.4229 0.863525 74.6601 0.884832 74.8675 0.927446C75.0749 0.97006 75.2283 1.00841 75.3277 1.0425L75.0209 2.23568C74.9556 2.2158 74.8732 2.19591 74.7738 2.17603C74.6743 2.1533 74.5635 2.14193 74.4414 2.14193C74.1544 2.14193 73.9513 2.21154 73.832 2.35074C73.7155 2.48711 73.6573 2.68313 73.6573 2.93881V9.99989H72.1104Z" fill="white"/>
<path d="M68.5681 9.99998V3.45452H70.1107V9.99998H68.5681ZM69.3436 2.52555C69.0993 2.52555 68.8891 2.44458 68.7129 2.28265C68.5368 2.11788 68.4487 1.92043 68.4487 1.69032C68.4487 1.45736 68.5368 1.25992 68.7129 1.09799C68.8891 0.933216 69.0993 0.85083 69.3436 0.85083C69.5908 0.85083 69.801 0.933216 69.9743 1.09799C70.1504 1.25992 70.2385 1.45736 70.2385 1.69032C70.2385 1.92043 70.1504 2.11788 69.9743 2.28265C69.801 2.44458 69.5908 2.52555 69.3436 2.52555Z" fill="white"/>
<path d="M66.9816 1.27271V9.99998H65.439V1.27271H66.9816Z" fill="white"/>
<path d="M57.939 12.4546V3.45461H59.456V4.537H59.5455C59.625 4.37791 59.7373 4.20887 59.8821 4.0299C60.027 3.84808 60.2231 3.69325 60.4702 3.56541C60.7174 3.43473 61.0327 3.36938 61.4162 3.36938C61.9219 3.36938 62.3779 3.49865 62.7841 3.75717C63.1932 4.01285 63.5171 4.39211 63.7557 4.89495C63.9972 5.39495 64.1179 6.00859 64.1179 6.73586C64.1179 7.45461 64 8.06541 63.7642 8.56825C63.5285 9.07109 63.2074 9.45461 62.8012 9.71882C62.3949 9.98302 61.9347 10.1151 61.4205 10.1151C61.0455 10.1151 60.7344 10.0526 60.4873 9.92762C60.2401 9.80262 60.0412 9.65206 59.8907 9.47592C59.7429 9.29694 59.6279 9.12791 59.5455 8.96882H59.4816V12.4546H57.939ZM59.4517 6.72734C59.4517 7.15064 59.5114 7.52137 59.6307 7.83956C59.7529 8.15774 59.9276 8.40632 60.1549 8.58529C60.385 8.76143 60.6634 8.8495 60.9901 8.8495C61.331 8.8495 61.6165 8.75859 61.8466 8.57677C62.0767 8.39211 62.25 8.14069 62.3665 7.82251C62.4858 7.50149 62.5455 7.13643 62.5455 6.72734C62.5455 6.32109 62.4873 5.96029 62.3708 5.64495C62.2543 5.32961 62.081 5.08245 61.8509 4.90348C61.6208 4.7245 61.3339 4.63501 60.9901 4.63501C60.6606 4.63501 60.3807 4.72166 60.1506 4.89495C59.9205 5.06825 59.7458 5.31115 59.6265 5.62365C59.51 5.93615 59.4517 6.30404 59.4517 6.72734Z" fill="white"/>
<path d="M47.1694 10.0001V3.45461H48.6439V4.56683H48.7206C48.8569 4.19183 49.0828 3.89921 49.3981 3.68899C49.7135 3.47592 50.0899 3.36938 50.5274 3.36938C50.9706 3.36938 51.3441 3.47734 51.6481 3.69325C51.9549 3.90632 52.1709 4.19751 52.2959 4.56683H52.364C52.5089 4.20319 52.7532 3.91342 53.097 3.69751C53.4436 3.47876 53.8541 3.36938 54.3285 3.36938C54.9308 3.36938 55.4223 3.55973 55.803 3.94041C56.1836 4.32109 56.374 4.87649 56.374 5.6066V10.0001H54.8271V5.84524C54.8271 5.43899 54.7191 5.14211 54.5032 4.95461C54.2873 4.76427 54.0231 4.6691 53.7106 4.6691C53.3385 4.6691 53.0473 4.78558 52.837 5.01853C52.6297 5.24865 52.526 5.54836 52.526 5.91768V10.0001H51.0132V5.78132C51.0132 5.44325 50.9109 5.17336 50.7064 4.97166C50.5047 4.76995 50.2405 4.6691 49.9138 4.6691C49.6922 4.6691 49.4905 4.72592 49.3086 4.83956C49.1268 4.95035 48.9819 5.10802 48.874 5.31257C48.766 5.51427 48.712 5.75007 48.712 6.01995V10.0001H47.1694Z" fill="white"/>
<path d="M44.0407 9.99998V3.45452H45.5833V9.99998H44.0407ZM44.8163 2.52555C44.572 2.52555 44.3617 2.44458 44.1856 2.28265C44.0095 2.11788 43.9214 1.92043 43.9214 1.69032C43.9214 1.45736 44.0095 1.25992 44.1856 1.09799C44.3617 0.933216 44.572 0.85083 44.8163 0.85083C45.0634 0.85083 45.2737 0.933216 45.447 1.09799C45.6231 1.25992 45.7112 1.45736 45.7112 1.69032C45.7112 1.92043 45.6231 2.11788 45.447 2.28265C45.2737 2.44458 45.0634 2.52555 44.8163 2.52555Z" fill="white"/>
<path d="M41.0587 3.67179C41.019 3.29963 40.8513 3.00986 40.5559 2.80247C40.2633 2.59508 39.8826 2.49139 39.4138 2.49139C39.0843 2.49139 38.8016 2.5411 38.5658 2.64054C38.33 2.73997 38.1496 2.87491 38.0246 3.04537C37.8996 3.21582 37.8357 3.41042 37.8329 3.62917C37.8329 3.81099 37.8741 3.96866 37.9565 4.10218C38.0417 4.23571 38.1567 4.34934 38.3016 4.44309C38.4465 4.534 38.607 4.61071 38.7832 4.67321C38.9593 4.73571 39.1369 4.78826 39.3158 4.83088L40.134 5.03542C40.4636 5.11213 40.7803 5.21582 41.0843 5.3465C41.3911 5.47718 41.6653 5.64196 41.9067 5.84082C42.1511 6.03968 42.3442 6.27974 42.4863 6.56099C42.6283 6.84224 42.6994 7.17179 42.6994 7.54963C42.6994 8.06099 42.5687 8.51127 42.3073 8.90048C42.0459 9.28684 41.6681 9.5894 41.1738 9.80815C40.6823 10.0241 40.0871 10.132 39.3883 10.132C38.7093 10.132 38.1198 10.0269 37.6198 9.81667C37.1226 9.60645 36.7334 9.29963 36.4522 8.89622C36.1738 8.49281 36.0232 8.00133 36.0005 7.42179H37.5559C37.5786 7.72576 37.6724 7.9786 37.8371 8.18031C38.0019 8.38201 38.2164 8.53258 38.4806 8.63201C38.7476 8.73145 39.0459 8.78116 39.3755 8.78116C39.7192 8.78116 40.0204 8.73003 40.2789 8.62775C40.5403 8.52264 40.7448 8.37775 40.8925 8.19309C41.0403 8.00559 41.1155 7.78684 41.1184 7.53684C41.1155 7.30957 41.0488 7.12207 40.9181 6.97434C40.7874 6.82378 40.6042 6.69878 40.3684 6.59934C40.1354 6.49707 39.8627 6.40616 39.5502 6.32662L38.5573 6.07093C37.8386 5.88628 37.2704 5.60645 36.8528 5.23145C36.438 4.8536 36.2306 4.35218 36.2306 3.72718C36.2306 3.21298 36.3698 2.7627 36.6482 2.37633C36.9295 1.98997 37.3116 1.69025 37.7945 1.47718C38.2775 1.26127 38.8244 1.15332 39.4351 1.15332C40.0545 1.15332 40.5971 1.26127 41.063 1.47718C41.5317 1.69025 41.8996 1.98713 42.1667 2.36781C42.4337 2.74565 42.5715 3.18031 42.58 3.67179H41.0587Z" fill="white"/>
<path d="M74.1439 17.1023C73.8674 17.1023 73.6164 17.0502 73.3911 16.9461C73.1657 16.84 72.9867 16.6875 72.8541 16.4887C72.7216 16.2879 72.6553 16.0455 72.6553 15.7614C72.6553 15.5114 72.7045 15.3088 72.803 15.1535C72.9015 14.9963 73.0331 14.8732 73.1979 14.7841C73.3627 14.6951 73.5445 14.6288 73.7433 14.5853C73.9441 14.5398 74.1458 14.5038 74.3485 14.4773C74.6136 14.4432 74.8286 14.4177 74.9933 14.4006C75.16 14.3817 75.2812 14.3504 75.357 14.3069C75.4346 14.2633 75.4735 14.1875 75.4735 14.0796V14.0569C75.4735 13.7766 75.3968 13.5588 75.2433 13.4035C75.0918 13.2482 74.8617 13.1705 74.553 13.1705C74.2329 13.1705 73.982 13.2406 73.8002 13.3807C73.6183 13.5209 73.4905 13.6705 73.4166 13.8296L72.7803 13.6023C72.8939 13.3372 73.0454 13.1307 73.2348 12.983C73.4261 12.8334 73.6344 12.7292 73.8598 12.6705C74.0871 12.6099 74.3106 12.5796 74.5303 12.5796C74.6704 12.5796 74.8314 12.5966 75.0132 12.6307C75.1969 12.6629 75.374 12.7302 75.5445 12.8324C75.7168 12.9347 75.8598 13.0891 75.9735 13.2955C76.0871 13.5019 76.1439 13.7785 76.1439 14.125V17H75.4735V16.4091H75.4394C75.3939 16.5038 75.3182 16.6052 75.2121 16.7131C75.106 16.8211 74.9649 16.9129 74.7888 16.9887C74.6127 17.0644 74.3977 17.1023 74.1439 17.1023ZM74.2462 16.5C74.5113 16.5 74.7348 16.448 74.9166 16.3438C75.1003 16.2396 75.2386 16.1052 75.3314 15.9404C75.4261 15.7756 75.4735 15.6023 75.4735 15.4205V14.8069C75.445 14.841 75.3825 14.8722 75.286 14.9006C75.1913 14.9271 75.0814 14.9508 74.9564 14.9716C74.8333 14.9906 74.713 15.0076 74.5956 15.0228C74.4801 15.036 74.3863 15.0474 74.3144 15.0569C74.1401 15.0796 73.9772 15.1165 73.8257 15.1677C73.6761 15.2169 73.5549 15.2917 73.4621 15.3921C73.3712 15.4906 73.3257 15.625 73.3257 15.7955C73.3257 16.0285 73.4119 16.2046 73.5843 16.3239C73.7585 16.4413 73.9791 16.5 74.2462 16.5Z" fill="white"/>
<path d="M139.271 34.213C138.401 34.213 137.632 34.071 136.963 33.7869C136.3 33.4969 135.779 33.0589 135.401 32.473C135.022 31.887 134.833 31.1413 134.833 30.2358C134.833 29.49 134.96 28.8538 135.214 28.327C135.469 27.7943 135.824 27.3593 136.28 27.022C136.735 26.6846 137.265 26.4272 137.869 26.2496C138.478 26.072 139.135 25.9566 139.84 25.9034C140.603 25.8442 141.216 25.7732 141.677 25.6903C142.145 25.6015 142.482 25.4802 142.689 25.3263C142.897 25.1665 143 24.9564 143 24.696V24.6605C143 24.3054 142.864 24.0331 142.592 23.8437C142.319 23.6543 141.97 23.5596 141.544 23.5596C141.077 23.5596 140.695 23.6632 140.399 23.8703C140.109 24.0716 139.934 24.3823 139.875 24.8025H135.365C135.424 23.9739 135.688 23.2104 136.155 22.512C136.629 21.8077 137.318 21.2455 138.224 20.8252C139.129 20.3991 140.26 20.186 141.615 20.186C142.592 20.186 143.468 20.3014 144.243 20.5323C145.018 20.7572 145.678 21.0738 146.223 21.4822C146.767 21.8847 147.182 22.3581 147.466 22.9027C147.756 23.4412 147.901 24.0272 147.901 24.6605V34H143.32V32.0823H143.213C142.941 32.5913 142.609 33.0027 142.219 33.3164C141.834 33.63 141.393 33.8579 140.896 34C140.405 34.142 139.863 34.213 139.271 34.213ZM140.869 31.1235C141.242 31.1235 141.592 31.0466 141.917 30.8927C142.248 30.7388 142.518 30.5169 142.725 30.2269C142.932 29.9369 143.036 29.5847 143.036 29.1704V28.034C142.905 28.0873 142.766 28.1376 142.618 28.185C142.476 28.2323 142.322 28.2767 142.157 28.3181C141.997 28.3596 141.825 28.398 141.642 28.4335C141.464 28.4691 141.278 28.5016 141.083 28.5312C140.704 28.5904 140.393 28.688 140.15 28.8242C139.914 28.9544 139.736 29.1171 139.618 29.3125C139.505 29.5018 139.449 29.7149 139.449 29.9517C139.449 30.3304 139.582 30.6205 139.848 30.8217C140.115 31.0229 140.455 31.1235 140.869 31.1235Z" fill="white"/>
<path d="M126.88 34.2485C125.401 34.2485 124.134 33.9556 123.081 33.3696C122.027 32.7778 121.219 31.9551 120.657 30.9016C120.095 29.8422 119.813 28.6141 119.813 27.2173C119.813 25.8205 120.095 24.5954 120.657 23.5419C121.219 22.4824 122.027 21.6598 123.081 21.0738C124.134 20.482 125.401 20.186 126.88 20.186C128.218 20.186 129.375 20.4287 130.351 20.914C131.334 21.3934 132.094 22.0741 132.633 22.9559C133.172 23.8319 133.444 24.8617 133.45 26.0454H128.904C128.839 25.3293 128.632 24.7848 128.283 24.4119C127.94 24.0331 127.496 23.8437 126.951 23.8437C126.525 23.8437 126.152 23.968 125.833 24.2166C125.513 24.4592 125.264 24.8291 125.087 25.3263C124.909 25.8175 124.821 26.436 124.821 27.1818C124.821 27.9275 124.909 28.549 125.087 29.0461C125.264 29.5374 125.513 29.9073 125.833 30.1559C126.152 30.3985 126.525 30.5198 126.951 30.5198C127.312 30.5198 127.632 30.437 127.91 30.2713C128.188 30.0996 128.413 29.851 128.585 29.5255C128.762 29.1941 128.869 28.7916 128.904 28.3181H133.45C133.432 29.5196 133.157 30.5672 132.624 31.4609C132.092 32.3487 131.337 33.0352 130.36 33.5206C129.39 34.0059 128.23 34.2485 126.88 34.2485Z" fill="white"/>
<path d="M112.913 34V20.3636H117.814V34H112.913ZM115.363 18.9432C114.7 18.9432 114.132 18.7242 113.659 18.2862C113.185 17.8482 112.949 17.3215 112.949 16.706C112.949 16.0904 113.185 15.5637 113.659 15.1257C114.132 14.6877 114.7 14.4688 115.363 14.4688C116.032 14.4688 116.6 14.6877 117.068 15.1257C117.541 15.5637 117.778 16.0904 117.778 16.706C117.778 17.3215 117.541 17.8482 117.068 18.2862C116.6 18.7242 116.032 18.9432 115.363 18.9432Z" fill="white"/>
<path d="M110.914 20.3637V23.9149H101.929V20.3637H110.914ZM103.669 17.0967H108.57V29.6144C108.57 29.8038 108.602 29.9636 108.667 30.0938C108.733 30.2181 108.833 30.3128 108.969 30.3779C109.105 30.4371 109.28 30.4667 109.493 30.4667C109.641 30.4667 109.813 30.449 110.008 30.4134C110.209 30.3779 110.357 30.3483 110.452 30.3247L111.162 33.7693C110.943 33.8344 110.629 33.9143 110.221 34.009C109.819 34.1037 109.339 34.1658 108.783 34.1954C107.658 34.2546 106.714 34.1392 105.951 33.8492C105.187 33.5532 104.613 33.0886 104.229 32.4553C103.844 31.8221 103.657 31.029 103.669 30.0761V17.0967Z" fill="white"/>
<path d="M91.8105 34.2131C90.9405 34.2131 90.1711 34.0711 89.5023 33.787C88.8394 33.497 88.3186 33.059 87.9398 32.4731C87.561 31.8871 87.3716 31.1414 87.3716 30.2359C87.3716 29.4901 87.4988 28.8539 87.7533 28.3271C88.0078 27.7945 88.3629 27.3594 88.8187 27.0221C89.2744 26.6847 89.8041 26.4273 90.4078 26.2497C91.0174 26.0722 91.6744 25.9567 92.3787 25.9035C93.1422 25.8443 93.7548 25.7733 94.2164 25.6904C94.684 25.6016 95.0213 25.4803 95.2285 25.3264C95.4356 25.1666 95.5392 24.9565 95.5392 24.6961V24.6606C95.5392 24.3055 95.4031 24.0332 95.1308 23.8438C94.8586 23.6544 94.5094 23.5597 94.0832 23.5597C93.6157 23.5597 93.2339 23.6633 92.938 23.8705C92.648 24.0717 92.4734 24.3824 92.4142 24.8026H87.9043C87.9634 23.974 88.2268 23.2105 88.6944 22.5121C89.1679 21.8078 89.8574 21.2456 90.7629 20.8254C91.6685 20.3992 92.7989 20.1861 94.1543 20.1861C95.1308 20.1861 96.0068 20.3016 96.7821 20.5324C97.5574 20.7573 98.2173 21.0739 98.7619 21.4823C99.3064 21.8848 99.7207 22.3583 100.005 22.9028C100.295 23.4414 100.44 24.0273 100.44 24.6606V34.0001H95.8588V32.0825H95.7523C95.48 32.5915 95.1486 33.0028 94.7579 33.3165C94.3732 33.6302 93.9323 33.858 93.4352 34.0001C92.9439 34.1421 92.4024 34.2131 91.8105 34.2131ZM93.4085 31.1236C93.7814 31.1236 94.1306 31.0467 94.4561 30.8928C94.7875 30.7389 95.0568 30.517 95.264 30.227C95.4711 29.937 95.5747 29.5848 95.5747 29.1705V28.0342C95.4445 28.0874 95.3054 28.1377 95.1574 28.1851C95.0154 28.2324 94.8615 28.2768 94.6958 28.3182C94.536 28.3597 94.3644 28.3982 94.1809 28.4337C94.0033 28.4692 93.8169 28.5017 93.6216 28.5313C93.2428 28.5905 92.9321 28.6882 92.6894 28.8243C92.4527 28.9545 92.2751 29.1173 92.1567 29.3126C92.0443 29.502 91.9881 29.715 91.9881 29.9518C91.9881 30.3306 92.1212 30.6206 92.3876 30.8218C92.6539 31.023 92.9942 31.1236 93.4085 31.1236ZM92.6628 18.6592L94.3673 14.6819H98.5577L95.8943 18.6592H92.6628Z" fill="white"/>
<path d="M64.5 34V20.3636H69.152V22.9559H69.294C69.5781 22.1036 70.0634 21.4289 70.75 20.9318C71.4366 20.4346 72.2533 20.186 73.2003 20.186C74.1591 20.186 74.9847 20.4405 75.6772 20.9495C76.3697 21.4526 76.7869 22.1214 76.929 22.9559H77.071C77.3018 22.1214 77.7931 21.4526 78.5447 20.9495C79.2964 20.4405 80.1783 20.186 81.1903 20.186C82.4983 20.186 83.5578 20.6063 84.3686 21.4467C85.1854 22.2871 85.5938 23.4057 85.5938 24.8025V34H80.6932V26.0454C80.6932 25.4476 80.5423 24.9801 80.2404 24.6427C79.9386 24.2994 79.5331 24.1278 79.0241 24.1278C78.5211 24.1278 78.1216 24.2994 77.8256 24.6427C77.5356 24.9801 77.3906 25.4476 77.3906 26.0454V34H72.7031V26.0454C72.7031 25.4476 72.5522 24.9801 72.2504 24.6427C71.9485 24.2994 71.5431 24.1278 71.0341 24.1278C70.6967 24.1278 70.4067 24.2047 70.1641 24.3586C69.9214 24.5125 69.732 24.7344 69.5959 25.0245C69.4657 25.3085 69.4006 25.6489 69.4006 26.0454V34H64.5Z" fill="white"/>
<path d="M55.8242 34.2485C54.3683 34.2485 53.1135 33.9704 52.06 33.414C51.0124 32.8518 50.2045 32.0468 49.6364 30.9992C49.0741 29.9457 48.793 28.6851 48.793 27.2173C48.793 25.8087 49.0771 24.5776 49.6452 23.5241C50.2134 22.4706 51.0154 21.6509 52.0511 21.0649C53.0869 20.479 54.3091 20.186 55.7177 20.186C56.7475 20.186 57.6797 20.3458 58.5142 20.6654C59.3487 20.985 60.0619 21.4496 60.6538 22.0593C61.2456 22.663 61.7013 23.3969 62.021 24.261C62.3406 25.1251 62.5004 26.0987 62.5004 27.1818V28.3181H50.32V25.6193H57.9904C57.9845 25.2286 57.8839 24.8854 57.6886 24.5894C57.4992 24.2876 57.2417 24.0538 56.9162 23.8881C56.5966 23.7165 56.2326 23.6306 55.8242 23.6306C55.4277 23.6306 55.0637 23.7165 54.7322 23.8881C54.4008 24.0538 54.1345 24.2846 53.9332 24.5806C53.7379 24.8765 53.6343 25.2227 53.6225 25.6193V28.5312C53.6225 28.9692 53.7143 29.3598 53.8977 29.7031C54.0812 30.0464 54.3446 30.3157 54.6879 30.511C55.0311 30.7063 55.4454 30.8039 55.9308 30.8039C56.2681 30.8039 56.5759 30.7566 56.854 30.6619C57.1381 30.5672 57.3808 30.4311 57.582 30.2535C57.7833 30.07 57.9312 29.851 58.0259 29.5965H62.5004C62.3465 30.5435 61.9825 31.3662 61.4084 32.0646C60.8343 32.7571 60.0737 33.2956 59.1268 33.6804C58.1857 34.0591 57.0849 34.2485 55.8242 34.2485Z" fill="white"/>
<path d="M47.437 20.3637V23.9149H38.4526V20.3637H47.437ZM40.1927 17.0967H45.0933V29.6144C45.0933 29.8038 45.1258 29.9636 45.1909 30.0938C45.256 30.2181 45.3566 30.3128 45.4928 30.3779C45.6289 30.4371 45.8035 30.4667 46.0166 30.4667C46.1645 30.4667 46.3362 30.449 46.5315 30.4134C46.7327 30.3779 46.8807 30.3483 46.9754 30.3247L47.6856 33.7693C47.4666 33.8344 47.1529 33.9143 46.7445 34.009C46.3421 34.1037 45.8627 34.1658 45.3063 34.1954C44.1818 34.2546 43.2378 34.1392 42.4743 33.8492C41.7108 33.5532 41.1367 33.0886 40.752 32.4553C40.3673 31.8221 40.1809 31.029 40.1927 30.0761V17.0967Z" fill="white"/>
<path d="M28.3339 34.213C27.4639 34.213 26.6945 34.071 26.0257 33.7869C25.3628 33.4969 24.842 33.0589 24.4632 32.473C24.0844 31.887 23.895 31.1413 23.895 30.2358C23.895 29.49 24.0223 28.8538 24.2768 28.327C24.5313 27.7943 24.8864 27.3593 25.3421 27.022C25.7978 26.6846 26.3275 26.4272 26.9312 26.2496C27.5409 26.072 28.1978 25.9566 28.9021 25.9034C29.6656 25.8442 30.2782 25.7732 30.7398 25.6903C31.2074 25.6015 31.5448 25.4802 31.7519 25.3263C31.9591 25.1665 32.0626 24.9564 32.0626 24.696V24.6605C32.0626 24.3054 31.9265 24.0331 31.6543 23.8437C31.382 23.6543 31.0328 23.5596 30.6067 23.5596C30.1391 23.5596 29.7574 23.6632 29.4614 23.8703C29.1714 24.0716 28.9968 24.3823 28.9376 24.8025H24.4277C24.4869 23.9739 24.7503 23.2104 25.2178 22.512C25.6913 21.8077 26.3808 21.2455 27.2864 20.8252C28.1919 20.3991 29.3223 20.186 30.6777 20.186C31.6543 20.186 32.5302 20.3014 33.3055 20.5323C34.0809 20.7572 34.7408 21.0738 35.2853 21.4822C35.8298 21.8847 36.2441 22.3581 36.5282 22.9027C36.8182 23.4412 36.9632 24.0272 36.9632 24.6605V34H32.3822V32.0823H32.2757C32.0034 32.5913 31.672 33.0027 31.2814 33.3164C30.8967 33.63 30.4557 33.8579 29.9586 34C29.4673 34.142 28.9258 34.213 28.3339 34.213ZM29.932 31.1235C30.3048 31.1235 30.654 31.0466 30.9795 30.8927C31.311 30.7388 31.5803 30.5169 31.7874 30.2269C31.9946 29.9369 32.0981 29.5847 32.0981 29.1704V28.034C31.9679 28.0873 31.8289 28.1376 31.6809 28.185C31.5388 28.2323 31.385 28.2767 31.2192 28.3181C31.0594 28.3596 30.8878 28.398 30.7043 28.4335C30.5268 28.4691 30.3403 28.5016 30.145 28.5312C29.7662 28.5904 29.4555 28.688 29.2128 28.8242C28.9761 28.9544 28.7985 29.1171 28.6802 29.3125C28.5677 29.5018 28.5115 29.7149 28.5115 29.9517C28.5115 30.3304 28.6447 30.6205 28.911 30.8217C29.1773 31.0229 29.5177 31.1235 29.932 31.1235Z" fill="white"/>
<path d="M1.17236 15.8181H7.31583L11.5417 26.1164H11.7548L15.9806 15.8181H22.1241V33.9999H17.2945V23.4886H17.1525L13.1042 33.8579H10.1923L6.14395 23.4175H6.00191V33.9999H1.17236V15.8181Z" fill="white"/>
</svg>
